<svg id="Group_4146" data-name="Group 4146" xmlns="http://www.w3.org/2000/svg" xmlns:xlink="http://www.w3.org/1999/xlink" width="361.5" height="58.064" viewBox="0 0 361.5 58.064">
  <defs>
    <clipPath id="clip-path">
      <rect id="Rectangle_12470" data-name="Rectangle 12470" width="361.5" height="58.064" fill="#fff"/>
    </clipPath>
  </defs>
  <path id="Path_5681" data-name="Path 5681" d="M731.322,48.618v1.668h-2.108V48.618h-1.53l-4.116,5.411-4.116-5.411h-6.136l7.184,9.445-7.184,9.445h6.136l4.116-5.411,4.116,5.411h6.136l-7.184-9.445,7.184-9.445Z" transform="translate(-372.319 -25.376)" fill="#00ed57"/>
  <rect id="Rectangle_12464" data-name="Rectangle 12464" width="2.108" height="1.678" transform="translate(356.895 21.555)" fill="#00ed57"/>
  <rect id="Rectangle_12465" data-name="Rectangle 12465" width="1.448" height="1.448" transform="translate(359.003 20.107)" fill="#00ed57"/>
  <rect id="Rectangle_12466" data-name="Rectangle 12466" width="1.447" height="1.448" transform="translate(355.447 20.107)" fill="#00ed57"/>
  <g id="Group_4037" data-name="Group 4037">
    <g id="Group_4036" data-name="Group 4036" clip-path="url(#clip-path)">
      <path id="Path_5682" data-name="Path 5682" d="M30.227,20.615c-1.6.126-3.212.222-4.805.406a5.184,5.184,0,0,0-3.935,2.444,8.614,8.614,0,0,0-.591,1.491v.69c.022.1.052.2.064.3a4.075,4.075,0,0,0,1.182,2.524,7.083,7.083,0,0,0,3.7,1.692,7,7,0,0,0,1.966.046c0-.564-.006-1.1,0-1.628,0-.188-.089-.222-.248-.229a11.323,11.323,0,0,1-1.219-.067,3.49,3.49,0,0,1-2.661-1.45,2.15,2.15,0,0,1,.34-3.107A4.812,4.812,0,0,1,26.3,22.578a18.17,18.17,0,0,1,4.465-.036c.067,0,.134.015.205.022l-.184-1.985c-.184.011-.374.023-.554.037" transform="translate(-10.907 -10.741)" fill="#1388ce"/>
      <path id="Path_5683" data-name="Path 5683" d="M41.42,19.339c-.2.026-.288.051-.269.244.054.457.088.911.113,1.371.018.252-.064.37.273.37a1.667,1.667,0,0,1,.551.256c.2.118.392.261.607.367A1.25,1.25,0,0,0,43.722,22a2,2,0,0,0,.885-1.98,2.859,2.859,0,0,0-.555-1.318,1.054,1.054,0,0,0-1.822.055,1.136,1.136,0,0,1-.812.582" transform="translate(-21.477 -9.502)" fill="#1389cd"/>
      <path id="Path_5684" data-name="Path 5684" d="M33.955,16.427c.025.2.053.286.242.269.456-.044.915-.075,1.372-.1.257-.014.373.074.373-.271a1.856,1.856,0,0,1,.263-.542c.123-.205.269-.392.377-.6a1.277,1.277,0,0,0,.061-1.032,1.99,1.99,0,0,0-1.966-.9,2.779,2.779,0,0,0-1.329.537,1.055,1.055,0,0,0,.043,1.824,1.109,1.109,0,0,1,.563.816" transform="translate(-17.144 -6.91)" fill="#1389cd"/>
      <path id="Path_5685" data-name="Path 5685" d="M35.893,110.122l.447.147a.1.1,0,0,1,.028,0c-.159-.053-.318-.1-.475-.144" transform="translate(-18.735 -57.479)" fill="#008dd3"/>
      <path id="Path_5686" data-name="Path 5686" d="M33.162,114.194c-1.467-.37-2.964-.759-4.5-1.157.5,2.137,2.346,2.593,4.5,1.157" transform="translate(-14.959 -59)" fill="#008dd3"/>
      <path id="Path_5687" data-name="Path 5687" d="M27.419,40.9a6.829,6.829,0,0,0,3.244.674c-.022-.423-.046-.815-.058-1.207-.009-.283-.153-.4-.42-.493A8.3,8.3,0,0,1,28.5,39.15a1.383,1.383,0,0,1-.42-1.979,2.5,2.5,0,0,1,1.755-1.3c.974-.182,1.96-.306,2.94-.444a5.725,5.725,0,0,0,3.473-1.615,4.072,4.072,0,0,0,.823-1.256,3.114,3.114,0,0,0-.566-3.356c-1.161-1.262-2.878-1.506-4.45-1.911-.163-1.917.364-3.9.187-5.816a8.671,8.671,0,0,0-2.079,0c.022,2.775.107,5.546.178,8.321.028,1.011-.181,2.764.374,3.674.478.779.811-.212.958-.726a15.985,15.985,0,0,0,.343-4.644c.07.634.08.6-.349,1.017.855.3,1.9.172,2.576.854a2.014,2.014,0,0,1-.22,3.136,5.9,5.9,0,0,1-2.266.758c-.977.153-1.972.237-2.931.461a3.934,3.934,0,0,0-2.769,1.923,3.193,3.193,0,0,0,.077,3.57A3.255,3.255,0,0,0,27.419,40.9" transform="translate(-13.336 -11.178)" fill="#1388cd"/>
      <line id="Line_152" data-name="Line 152" y2="26.818" transform="translate(17.81 10.46)" fill="#008dd3"/>
      <path id="Path_5688" data-name="Path 5688" d="M37.151,21.881,36.768,48.7h-1.4l-.386-26.818Z" transform="translate(-18.259 -11.421)" fill="#1388ce"/>
      <path id="Path_5689" data-name="Path 5689" d="M37.288,77.267l-.031.024v0a.153.153,0,0,0,.031-.028" transform="translate(-19.447 -40.33)" fill="#008dd3"/>
      <path id="Path_5690" data-name="Path 5690" d="M37.083,114.072q-2.191-.556-4.5-1.158c.505,2.141,2.352,2.6,4.5,1.158" transform="translate(-17.006 -58.936)" fill="#008dd3"/>
      <path id="Path_5691" data-name="Path 5691" d="M35.575,67.906a4.016,4.016,0,0,0,2.606-3.439,3.67,3.67,0,0,0-2.45-3.6c-.257-.091-.386-.012-.407.263s0,.539-.006.809a.5.5,0,0,0,.352.53,1.441,1.441,0,0,1,.775.7,2.472,2.472,0,0,1,.086,2.349,4.359,4.359,0,0,1-1.764,1.951.12.12,0,0,1-.031.028v0l-.178.108,0,.006a7.482,7.482,0,0,1-1.666.637,3.926,3.926,0,0,0-.462.165c0,.046.009.095.015.141a5.292,5.292,0,0,0,.619.046,5.586,5.586,0,0,0,1.237-.2l.86-.3c.144-.058.279-.117.416-.187" transform="translate(-16.925 -31.749)" fill="#1388cd"/>
      <path id="Path_5692" data-name="Path 5692" d="M37.083,114.072q-2.191-.556-4.5-1.158c.505,2.141,2.352,2.6,4.5,1.158" transform="translate(-17.006 -58.936)" fill="#008dd3"/>
      <path id="Path_5693" data-name="Path 5693" d="M42.115,88.512h-.006l-.022.007a.263.263,0,0,1,.028-.007" transform="translate(-21.968 -46.199)" fill="#008dd3"/>
      <path id="Path_5694" data-name="Path 5694" d="M35.374,16.48a17.274,17.274,0,0,0-3.589-9.419C26.382-.427,14.76-2.6,6.568,3.668A15.532,15.532,0,0,0,.192,19.063a22.443,22.443,0,0,0,4.7,10.575,11.553,11.553,0,0,1,2.235,4.744,36.889,36.889,0,0,1,.634,4.882A5.946,5.946,0,0,0,10.8,44.31a20.292,20.292,0,0,0,3.406,1.562c2.226.765,4.5,1.393,6.759,2.095a9.808,9.808,0,0,1,.928.367,8.331,8.331,0,0,1-1.755-.328c-2.572-.756-5.138-1.574-7.732-2.257A6.993,6.993,0,0,0,9.8,45.56a1.5,1.5,0,0,0-1.121,2.324,3.006,3.006,0,0,0,.989,1.063,9.031,9.031,0,0,0,1.96,1c2.076.732,4.168,1.4,6.248,2.094.327.1.649.215.977.328a2.661,2.661,0,0,1,.735.3c.024.018-.239.165-.263.168a.963.963,0,0,1-.392-.076c-1.488-.475-2.983-.91-4.464-1.375-.852-.258-1.6.227-1.461,1.075a13.043,13.043,0,0,0,.806,3.194,3.868,3.868,0,0,0,4.376,2.352,9.2,9.2,0,0,0,1.941-.588c1.277-.526,1.424-1.219.53-2.159.263.272,1.513-.125,1.825-.239a1.74,1.74,0,0,0,.205-3.134,7.874,7.874,0,0,0-1.785-.964c-1.929-.686-3.88-1.311-5.831-1.958-1-.337-2.006-.7-3.007-1.05.024-.034.04-.074.067-.113.19.052.392.092.585.147,2.723.8,5.421,1.651,8.153,2.38a8.842,8.842,0,0,0,2.679.2,1.435,1.435,0,0,0,1.307-1.272,1.877,1.877,0,0,0-.9-2.122,12.767,12.767,0,0,0-2.665-1.255c-1.88-.634-3.822-1.087-5.7-1.742a29.388,29.388,0,0,1-3.865-1.733,3.594,3.594,0,0,1-1.844-3.146c-.074-1.029-.126-2.052-.251-3.072A16.7,16.7,0,0,0,6.66,28.466a32.366,32.366,0,0,1-3.032-5.119A14.593,14.593,0,0,1,2.737,12.31c1.675-5,5.332-8.01,10.2-9.559a15.865,15.865,0,0,1,19.68,10.293,12.358,12.358,0,0,1-.086,8.383,21.254,21.254,0,0,1-4.894,7.468,16.348,16.348,0,0,0-3.213,4.914,33.864,33.864,0,0,0-2.076,6.63,2.827,2.827,0,0,1-.554,1.207,1.816,1.816,0,0,1-1,.557,4.477,4.477,0,0,1-.649.11h.006a.177.177,0,0,0-.028.006.12.12,0,0,1,.022-.006,1.08,1.08,0,0,1-.6-.215,2.65,2.65,0,0,1-.906-1.914c-.031-.22-.052-.44-.065-.664-.022-.306-.024-.616-.033-.926-.028-.872.174-2.156-.463-2.848-.08-.086-.236.129-.236.129l-.159,0a.884.884,0,0,0-.132.128,1.95,1.95,0,0,0-.263.368c-.083.163-.077-.141-.141.057a12.037,12.037,0,0,0-.251,1.188c-.04.27-.086.557-.129.873-.025.163-.04.328-.061.49s-.034.352-.049.529a6.9,6.9,0,0,0,.095,1.942,3.912,3.912,0,0,0,.646,1.5,2.9,2.9,0,0,0,.53.564c.1.073.2.153.3.22s.208.126.315.187.215.1.322.143a3.413,3.413,0,0,0,1.1.23,4.181,4.181,0,0,0,3.179-1.041,4.966,4.966,0,0,0,.578-.732,6.172,6.172,0,0,0,.738-1.822,41.3,41.3,0,0,1,1.2-4.321,16.292,16.292,0,0,1,3.767-6.357A22.543,22.543,0,0,0,33.7,24.03a15.183,15.183,0,0,0,1.678-7.55M15.186,54.037c1.537.4,3.038.787,4.5,1.157-2.156,1.437-4,.98-4.5-1.157" transform="translate(0 0)" fill="#1389cd"/>
      <path id="Path_5695" data-name="Path 5695" d="M104.534,56.179h3.13V37.3h-3.13V33.658h11.294a17.069,17.069,0,0,1,5.452.624c5.114,1.473,8.465,6.036,8.465,12.44,0,6.216-3.093,10.633-8.1,12.293a16.857,16.857,0,0,1-5.776.769H104.534Zm11.111-.257a10.435,10.435,0,0,0,4.269-.662c2.983-1.219,4.856-4.232,4.856-8.538,0-4.453-1.948-7.434-5.04-8.611a9.808,9.808,0,0,0-4.085-.588h-3.16v18.4Z" transform="translate(-54.562 -17.568)" fill="#1389cd"/>
      <path id="Path_5696" data-name="Path 5696" d="M173.722,48.127c5.745,0,10.339,4.085,10.339,9.823,0,5.782-4.594,9.83-10.3,9.83-5.739,0-10.339-4.048-10.339-9.83,0-5.737,4.6-9.823,10.3-9.823m.037,15.675a5.855,5.855,0,1,0-5.592-5.852,5.553,5.553,0,0,0,5.592,5.852" transform="translate(-85.298 -25.12)" fill="#1389cd"/>
      <path id="Path_5697" data-name="Path 5697" d="M221.92,48.126c3.13,0,7.693,1.18,7.693,4.491v2.575h-4.049v-1.25c0-1.289-1.917-1.84-3.5-1.84-3.418,0-5.519,2.355-5.519,5.776a5.615,5.615,0,0,0,5.886,5.963,9.862,9.862,0,0,0,5.85-2.281l1.659,3.313a11.861,11.861,0,0,1-7.766,2.906c-5.488,0-10.339-3.755-10.339-9.787a9.758,9.758,0,0,1,10.081-9.866" transform="translate(-110.571 -25.12)" fill="#1389cd"/>
      <path id="Path_5698" data-name="Path 5698" d="M256.584,46.964h-2.873v-3.5h3.019V38.354h4.521v5.115h4.275v3.5h-4.275v7.909c0,3.243,2.438,3.647,3.76,3.647.258,0,.478-.036.625-.036h.214v3.827l-.4.071a7.909,7.909,0,0,1-1.029.037c-2.646,0-7.834-.772-7.834-7.062Z" transform="translate(-132.426 -20.019)" fill="#1389cd"/>
      <path id="Path_5699" data-name="Path 5699" d="M294.417,48.127c5.739,0,10.345,4.085,10.345,9.823,0,5.782-4.606,9.83-10.308,9.83-5.739,0-10.339-4.048-10.339-9.83,0-5.737,4.6-9.823,10.3-9.823m.037,15.675a5.855,5.855,0,1,0-5.592-5.852,5.553,5.553,0,0,0,5.592,5.852" transform="translate(-148.295 -25.12)" fill="#1389cd"/>
      <path id="Path_5700" data-name="Path 5700" d="M333.255,64.044h2.726V53.079a.707.707,0,0,0-.809-.812h-2.1v-3.5h4.894c1.66,0,2.5.773,2.5,2.282v1.1a5.124,5.124,0,0,1-.043.848,1.2,1.2,0,0,0-.031.329h.074c.882-2.686,3.056-4.82,5.954-4.82a2.711,2.711,0,0,1,.594.035.691.691,0,0,0,.257.038v4.6a1.057,1.057,0,0,1-.331-.035,5.373,5.373,0,0,0-.808-.037c-3.792,0-5.482,3.312-5.482,6.847v4.082h2.682v3.495H333.255Z" transform="translate(-173.848 -25.322)" fill="#1389cd"/>
      <path id="Path_5701" data-name="Path 5701" d="M392.009,32.735c4.673,0,10.234,1.8,10.234,5.153v3.6h-4.385V39.58c0-1.8-2.83-2.722-5.628-2.722-5.555,0-9.016,3.53-9.016,9.088,0,5.594,3.461,9.676,9.236,9.676,2.1,0,6-.548,6-2.72V50.1h-4.747V46.5h9.12v7.874c0,3.975-6.989,5.374-10.847,5.374-8.03,0-13.769-5.815-13.769-13.616s5.665-13.4,13.8-13.4" transform="translate(-197.408 -17.086)" fill="#1389cd"/>
      <path id="Path_5702" data-name="Path 5702" d="M446.241,48.126c5.409,0,8.355,3.938,8.355,8.91a9.623,9.623,0,0,1-.037.989l-.073.591H441.495a5.431,5.431,0,0,0,5.629,5.225,7.865,7.865,0,0,0,3.865-.992,9.659,9.659,0,0,0,1.586-1l1.8,3.311a10.337,10.337,0,0,1-2.027,1.289,11.816,11.816,0,0,1-5.555,1.326,9.637,9.637,0,0,1-10.082-9.83c0-5.773,3.9-9.823,9.53-9.823m3.534,7.731c-.109-2.614-1.623-4.122-3.645-4.122-2.395,0-4.085,1.618-4.526,4.122Z" transform="translate(-227.944 -25.12)" fill="#1389cd"/>
      <path id="Path_5703" data-name="Path 5703" d="M480.311,63.842h2.725V52.877a.707.707,0,0,0-.808-.812h-2.095v-3.5h4.925c1.66,0,2.432.773,2.432,2.1v.846a2.572,2.572,0,0,1-.037.553.739.739,0,0,0-.036.259h.074a7.524,7.524,0,0,1,6.92-4.2c4.012,0,6.291,2.136,6.291,7.14v8.575h2.72v3.495h-7.356V56.225c0-2.319-.625-3.827-2.983-3.827-3.381,0-5.371,3.237-5.371,6.514v4.93H490.4v3.495H480.311Z" transform="translate(-250.608 -25.12)" fill="#1389cd"/>
      <path id="Path_5704" data-name="Path 5704" d="M533.962,56.29h2.726V44.513h-2.909v-3.5h7.577V56.29h2.689v3.494H533.962Zm2.683-22.632h4.711v4.157h-4.711Z" transform="translate(-278.609 -17.568)" fill="#1389cd"/>
      <path id="Path_5705" data-name="Path 5705" d="M561.706,52.548h-2.9v-3.5h7.576v11.26c0,2.248.588,3.791,2.946,3.791,3.24,0,5.188-3.31,5.188-6.7V52.548H571.64v-3.5h7.546v14.5a.7.7,0,0,0,.808.808h1.8V67.82h-4.63c-1.66,0-2.432-.769-2.432-2.1v-.7c0-.26.037-.484.037-.628v-.26H574.7a7.356,7.356,0,0,1-6.848,4.125c-3.718,0-6.143-2.021-6.143-7.139Z" transform="translate(-291.67 -25.604)" fill="#1389cd"/>
      <path id="Path_5706" data-name="Path 5706" d="M611.91,61.082h3.975v1.1c0,1.289,1.727,1.951,3.681,1.951,1.875,0,3.2-.626,3.2-1.915,0-1.544-1.764-2.025-4.27-2.906-2.719-1-5.923-2.208-5.923-5.814,0-3.977,4.012-5.375,7.4-5.375,2.72,0,6.769,1.069,6.769,3.9v2.392h-4.013V53.353c0-.993-1.1-1.545-2.756-1.545-1.476,0-2.732.514-2.732,1.692,0,1.545,1.844,2.206,3.939,2.8,2.878.879,6.259,2.095,6.259,5.776,0,3.825-3.607,5.7-7.913,5.7-3.381,0-7.613-1.472-7.613-4.529Z" transform="translate(-319.39 -25.12)" fill="#1389cd"/>
      <rect id="Rectangle_12467" data-name="Rectangle 12467" width="0.339" height="18.767" transform="translate(315.534 23.449)" fill="#1389cd"/>
      <rect id="Rectangle_12468" data-name="Rectangle 12468" width="2.343" height="1.746" transform="translate(326.101 46.989)" fill="#00ed57"/>
      <path id="Path_5707" data-name="Path 5707" d="M694.139,54.392a9.577,9.577,0,0,0-1.964-3.008,9.313,9.313,0,0,0-2.927-2.036,9.006,9.006,0,0,0-7.19,0c-.19.085-.37.182-.551.276V48.581h-5.084V72.346h2.741V70.333h2.343v-3.87a9.141,9.141,0,0,0,1.977.736,8.949,8.949,0,0,0,2.183.263,8.822,8.822,0,0,0,3.582-.737,9.191,9.191,0,0,0,2.927-2.009,9.637,9.637,0,0,0,1.964-10.325M679.164,70.323h-1.745V68.962h1.745ZM689.454,59.7a4.246,4.246,0,0,1-.886,1.352,4.353,4.353,0,0,1-1.309.919,3.764,3.764,0,0,1-1.592.342,3.9,3.9,0,0,1-1.63-.342,4.277,4.277,0,0,1-1.323-.919,4.274,4.274,0,0,1-1.206-3,4.313,4.313,0,0,1,.32-1.668,4.21,4.21,0,0,1,.886-1.352,4.109,4.109,0,0,1,1.323-.906,4.05,4.05,0,0,1,1.63-.329,3.9,3.9,0,0,1,1.592.329,4.176,4.176,0,0,1,1.309.906,4.235,4.235,0,0,1,.886,1.352,4.325,4.325,0,0,1,.321,1.668,4.261,4.261,0,0,1-.321,1.643" transform="translate(-353.063 -25.357)" fill="#00ed57"/>
      <rect id="Rectangle_12469" data-name="Rectangle 12469" width="2.741" height="1.839" transform="translate(323.36 48.735)" fill="#00ed57"/>
    </g>
  </g>
</svg>
