<svg xmlns="http://www.w3.org/2000/svg" width="18.333" height="18.333" viewBox="0 0 18.333 18.333">
  <g id="Group_4155" data-name="Group 4155" transform="translate(-1067.318 -1411)">
    <g id="right" transform="translate(1067.318 1411)">
      <g id="Group_2019" data-name="Group 2019" transform="translate(0 0)">
        <g id="Group_2018" data-name="Group 2018">
          <path id="Path_3153" data-name="Path 3153" d="M15.649,2.685A9.167,9.167,0,0,0,2.685,15.649,9.167,9.167,0,1,0,15.649,2.685ZM9.167,17.259a8.092,8.092,0,1,1,8.092-8.092A8.1,8.1,0,0,1,9.167,17.259Z" transform="translate(0 0)" fill="#0074cf"/>
        </g>
      </g>
      <g id="Group_2021" data-name="Group 2021" transform="translate(4.63 6.068)">
        <g id="Group_2020" data-name="Group 2020">
          <path id="Path_3154" data-name="Path 3154" d="M138.217,169.624a.537.537,0,0,0-.76,0l-4.743,4.743-2.5-2.5a.537.537,0,0,0-.76.76l2.877,2.876a.537.537,0,0,0,.76,0l5.123-5.123A.537.537,0,0,0,138.217,169.624Z" transform="translate(-129.301 -169.467)"/>
        </g>
      </g>
    </g>
  </g>
</svg>
