<svg xmlns="http://www.w3.org/2000/svg" xmlns:xlink="http://www.w3.org/1999/xlink" width="41" height="55" viewBox="0 0 41 55">
  <defs>
    <clipPath id="clip-path">
      <rect id="Rectangle_12475" data-name="Rectangle 12475" width="41" height="55" transform="translate(0 0)" fill="none" stroke="#1ba4ff" stroke-width="2.2"/>
    </clipPath>
  </defs>
  <g id="Group_4154" data-name="Group 4154" transform="translate(-1388 -790)">
    <g id="Group_4049" data-name="Group 4049" transform="translate(1388 790)">
      <g id="Group_4048" data-name="Group 4048" clip-path="url(#clip-path)">
        <path id="Path_5709" data-name="Path 5709" d="M34.875,2.5h4.583V50.625H.5V2.5H5.083" transform="translate(0.646 3.229)" fill="none" stroke="#1ba4ff" stroke-linecap="round" stroke-linejoin="round" stroke-width="2.2"/>
        <path id="Path_5710" data-name="Path 5710" d="M2.5,10.792l4.583,4.583L13.958,8.5" transform="translate(3.229 10.979)" fill="none" stroke="#1ba4ff" stroke-linecap="round" stroke-linejoin="round" stroke-width="2.2"/>
        <line id="Line_153" data-name="Line 153" x2="9.167" transform="translate(24.063 24.063)" fill="none" stroke="#1ba4ff" stroke-linecap="round" stroke-linejoin="round" stroke-width="2.2"/>
        <path id="Path_5711" data-name="Path 5711" d="M2.5,16.792l4.583,4.583L13.958,14.5" transform="translate(3.229 18.729)" fill="none" stroke="#1ba4ff" stroke-linecap="round" stroke-linejoin="round" stroke-width="2.2"/>
        <line id="Line_154" data-name="Line 154" x2="9.167" transform="translate(24.063 37.813)" fill="none" stroke="#1ba4ff" stroke-linecap="round" stroke-linejoin="round" stroke-width="2.2"/>
        <path id="Path_5708" data-name="Path 5708" d="M25.125,7.375H4.5V5.083A4.585,4.585,0,0,1,9.083.5H20.542a4.585,4.585,0,0,1,4.583,4.583Z" transform="translate(5.813 0.646)" fill="none" stroke="#1ba4ff" stroke-linecap="round" stroke-linejoin="round" stroke-width="2.2"/>
      </g>
    </g>
  </g>
</svg>
